<svg xmlns="http://www.w3.org/2000/svg" viewBox="0 0 48.27 49.92"><defs><style>.cls-1{fill:none;stroke:#fff;stroke-miterlimit:10;stroke-width:2px;}</style></defs><title>Ресурс 6</title><g id="Слой_2" data-name="Слой 2"><g id="Слой_1-2" data-name="Слой 1"><polyline class="cls-1" points="36.34 35.55 36.34 48.92 1 48.92 1 7.34 8.98 7.34"/><polyline class="cls-1" points="29.21 7.34 36.34 7.34 36.34 31.56"/><rect class="cls-1" x="8.91" y="4.63" width="20.23" height="5.7"/><path class="cls-1" d="M16.38,4.63a3,3,0,0,1-.13-.85,2.78,2.78,0,1,1,5.56,0,2.66,2.66,0,0,1-.14.85"/><line class="cls-1" x1="7.38" y1="18.95" x2="29.96" y2="18.95"/><line class="cls-1" x1="7.38" y1="23.75" x2="29.96" y2="23.75"/><line class="cls-1" x1="7.38" y1="28.54" x2="29.96" y2="28.54"/><rect class="cls-1" x="30.72" y="20.3" width="3.7" height="29.5" transform="matrix(-0.37, -0.93, 0.93, -0.37, 11.97, 78.23)"/><polygon class="cls-1" points="18.39 39.29 14.01 42.47 19.32 41.64 18.39 39.29"/></g></g></svg>