<svg width="60" height="73" viewBox="0 0 60 73" fill="none" xmlns="http://www.w3.org/2000/svg">
<path d="M15.7441 68.04C16.2765 67.5837 17.752 66.9448 19.3948 68.04C21.4483 69.409 21.6764 71.6907 25.5552 71.6907C28.6583 71.6907 41.2986 71.6907 47.2309 71.6907C48.5999 70.8541 50.8359 68.542 48.8281 65.9866C51.0337 64.9978 54.4866 62.1534 50.6534 58.6853C52.3266 57.3163 54.6691 54.122 50.6534 52.2967C51.6421 50.1671 52.6612 45.8624 48.8281 45.6799H34.4537C33.8452 45.7559 32.5827 45.4061 32.4002 43.3982C32.2177 41.3904 32.3241 37.542 32.4002 35.8688H27.8369C26.1637 36.7814 22.2697 39.4281 20.0793 42.7137C19.1666 42.9419 17.0219 43.3982 15.7441 43.3982" stroke="#444444"/>
<path d="M50.8809 52.2966H39.0163M50.8809 58.6852H39.0163M48.5992 65.9865H39.0163M43.1232 45.6798V28.7956C52.98 19.1214 46.3176 11.379 41.7543 8.71704V19.8971L37.6473 23.3196L33.3121 19.8971V8.71704C28.6728 11.7592 21.9952 20.034 32.3995 28.7956V35.8687" stroke="#444444"/>
<path d="M18.0251 25.3731L20.3068 20.3535L22.5884 25.3731L27.8362 27.883L22.5884 29.9364L20.3068 34.4997L18.0251 29.9364L12.7773 27.883L18.0251 25.3731Z" stroke="#444444"/>
<path d="M50.9776 30.9227L52.7061 27.1985L54.4346 30.9227L58.4102 32.7849L54.4346 34.3084L52.7061 37.6941L50.9776 34.3084L47.002 32.7849L50.9776 30.9227Z" stroke="#444444"/>
<path d="M49.1514 4.91186L50.8799 1.18762L52.6084 4.91186L56.584 6.77399L52.6084 8.29754L50.8799 11.6832L49.1514 8.29754L45.1758 6.77399L49.1514 4.91186Z" stroke="#444444"/>
<path d="M15.9717 72.3751H0V39.9757H15.9717V72.3751ZM7.98535 62.3361C6.34743 62.3363 5.0196 63.6639 5.01953 65.3019C5.01953 66.9399 6.34739 68.2675 7.98535 68.2677C9.62351 68.2677 10.9521 66.94 10.9521 65.3019C10.9521 63.6638 9.62347 62.3361 7.98535 62.3361Z" fill="url(#paint0_linear_0_1442)"/>
<defs>
<linearGradient id="paint0_linear_0_1442" x1="0" y1="56.1754" x2="15.9716" y2="56.1754" gradientUnits="userSpaceOnUse">
<stop stop-color="#C2C658"/>
<stop offset="1" stop-color="#95AD62"/>
</linearGradient>
</defs>
</svg>
