<svg id="0c55f6e2-e570-41a4-939b-866ceb0007e7"
                xmlns="http://www.w3.org/2000/svg" xmlns:xlink="http://www.w3.org/1999/xlink" width="72.27357"
                height="72.5447" viewBox="0 0 72.27357 72.5447">
                <defs>
                  <linearGradient id="321a78d4-2da6-42e2-a311-75b9e906fc22" x1="29.38693" y1="51.10138" x2="72.27357"
                    y2="51.10138">
                    <stop offset="0" stop-color="#c2c658" />
                    <stop offset="1" stop-color="#95ad62" />
                  </linearGradient>
                </defs>
                <rect x="0.5" y="0.5" width="57.79506" height="57.78324" style="fill: #fff" />
                <g>
                  <g>
                    <circle cx="50.83025" cy="51.10138" r="21.44332"
                      style="fill: url(#321a78d4-2da6-42e2-a311-75b9e906fc22)" />
                    <polyline points="58.452 26.742 58.452 0.5 0.5 0.5 0.5 58.573 26.256 58.573"
                      style="fill: none;stroke: #444;stroke-miterlimit: 10" />
                    <polyline
                      points="18.724 0.5 18.724 15.929 24.252 10.402 29.583 15.733 34.983 10.334 40.342 15.693 40.342 0.5"
                      style="fill: none;stroke: #444;stroke-miterlimit: 10" />
                    <line x1="9.12593" y1="38.64846" x2="9.12593" y2="52.01257"
                      style="fill: none;stroke: #444;stroke-miterlimit: 10" />
                    <polyline points="5.299 42.867 9.126 38.28 12.953 42.867"
                      style="fill: none;stroke: #444;stroke-miterlimit: 10" />
                    <line x1="19.81721" y1="38.64846" x2="19.81721" y2="52.01257"
                      style="fill: none;stroke: #444;stroke-miterlimit: 10" />
                    <polyline points="15.99 42.867 19.817 38.28 23.644 42.867"
                      style="fill: none;stroke: #444;stroke-miterlimit: 10" />
                  </g>
                  <g>
                    <path
                      d="M49.98646,57.99027H39.359V56.45878q2.41333-1.90247,3.74756-3.02808,1.33447-1.12537,2.57568-2.39014a9.93136,9.93136,0,0,0,1.752-2.25073A4.23665,4.23665,0,0,0,47.945,46.8289a2.48347,2.48347,0,0,0-.95166-2.11157,3.66355,3.66355,0,0,0-2.27393-.71924,5.04967,5.04967,0,0,0-4.2002,1.94922l-1.18311-1.23A5.82775,5.82775,0,0,1,41.64467,42.919a7.44746,7.44746,0,0,1,3.07471-.63794,5.833,5.833,0,0,1,3.65479,1.18335,3.99123,3.99123,0,0,1,1.543,3.3645,6.60686,6.60686,0,0,1-1.85645,4.30444,42.17382,42.17382,0,0,1-5.66162,5.13989h7.5874Z"
                      style="fill: #fff" />
                    <path
                      d="M61.77455,57.99027H59.84828V54.06864H52.49281V52.46757L59.129,42.513h2.64551V52.3748H63.9557v1.69385H61.77455ZM59.84828,52.3748v-8.075l-5.42969,8.075Z"
                      style="fill: #fff" />
                  </g>
                </g>
              </svg>