<svg width="54" height="64" viewBox="0 0 54 64" fill="none" xmlns="http://www.w3.org/2000/svg">
<path d="M32.0816 29.953C36.1485 29.236 40.2201 29.2977 44.287 30.0338C47.4233 30.6036 53.4646 32.2276 53.8236 36.0502C54.3904 42.1474 53.3701 49.1183 53.8189 55.3104C53.4032 58.7722 47.8768 60.4294 45.0238 61.0277C39.8044 62.1247 34.3252 61.8777 29.1436 60.7096C18.7284 68.6065 4.03382 61.4171 3.7693 48.4108C2.21529 47.5133 0.557366 46.4876 0.0283406 44.6309L0 6.66599C0.458174 1.86043 10.0279 0.255408 13.835 0.0417221C18.4356 -0.214701 27.8541 0.644792 30.9196 4.47215C31.3022 4.94701 32.0816 6.1294 32.0816 6.68499V29.9578V29.953ZM13.4051 1.68948C10.4246 1.90317 5.51698 2.78165 3.13636 4.6241C0.75575 6.46655 1.07222 8.07157 3.55203 9.61961C9.19181 13.1383 21.2082 13.0576 27.1692 10.3224C30.6976 8.70313 31.8171 6.23862 27.9486 4.07801C24.0801 1.91741 17.746 1.37607 13.4051 1.68948ZM30.5276 10.1942L26.9047 12.1364C18.9693 14.6816 8.71474 14.9333 1.56346 10.1894C1.6721 11.3243 1.34618 12.7679 1.67682 13.8458C2.05942 15.0995 4.26054 15.7548 4.16607 16.8185C4.01492 18.4757 1.65793 16.3056 1.56346 16.4338C1.32729 19.7958 1.44065 20.964 4.48727 22.4645C10.1365 25.2472 23.6833 25.5321 28.8035 21.5908C30.759 20.0855 30.5937 18.8081 30.5276 16.4386C28.8697 17.1271 27.3959 18.1433 25.6719 18.7036C22.2663 19.8148 17.4295 20.2897 13.8491 20.076C13.0556 20.0285 8.90368 19.7341 9.07845 18.6799C9.28628 17.4073 13.6035 18.49 14.6143 18.5279C18.4686 18.6846 26.4229 17.7919 29.3278 15.0947C30.8157 13.7129 30.5512 12.0651 30.5323 10.1942H30.5276ZM1.55873 22.4123V26.1827C1.55873 26.6955 3.68428 28.1533 4.22748 28.443C10.0373 31.5438 22.2238 31.5391 27.9486 28.2673C30.5229 26.7952 30.8724 25.3754 30.4048 22.4123C27.3487 24.6584 23.0598 25.8123 19.2905 26.0639C13.4382 26.4486 6.40026 25.969 1.56346 22.4123H1.55873ZM30.5276 28.6567C30.3859 28.4905 28.5107 29.8201 28.1186 30.0053C20.6887 33.524 8.53053 33.1868 1.56346 28.6567C1.44537 31.7195 1.19975 32.8449 3.97714 34.4214C4.88876 34.939 8.27547 36.2829 9.18236 36.1927C9.61692 36.1499 12.3329 34.2078 13.2823 33.8089C15.4834 32.8876 17.9396 32.4223 20.325 32.541C21.2791 32.5885 23.1071 33.1631 23.8061 32.9684C24.3635 32.8164 25.8136 31.7337 26.6544 31.3871C27.8919 30.879 29.2239 30.5798 30.4945 30.1762L30.5276 28.6519V28.6567ZM33.4372 41.3306C33.9521 41.8292 40.1209 41.739 41.2592 41.6535C43.9327 41.4541 49.2607 40.2527 51.2257 38.4102C54.773 35.0862 48.5239 32.6787 45.9543 31.9997C39.6391 30.3377 31.4581 30.6226 25.6247 33.7234C28.3312 35.11 30.1875 36.5678 32.0438 38.9658C32.4736 39.5214 33.168 41.0552 33.4467 41.3259L33.4372 41.3306ZM18.6292 34.1128C15.4409 34.3882 12.5077 35.5326 10.094 37.6315L10.8828 38.9231C10.5899 40.1007 9.4516 39.5594 8.93202 38.7996L8.79977 38.9183C6.91511 41.3259 5.42251 44.2083 5.45085 47.3661C7.4961 47.3518 7.52916 49.0756 5.46974 49.2228C5.42723 52.2903 6.88677 55.0303 8.57776 57.4853C9.12096 57.8034 10.2215 56.2887 10.8734 57.3951L10.0987 59.0713C12.7533 60.814 15.3795 62.2529 18.6292 62.4571C18.5395 61.5548 18.5867 60.947 19.5409 60.6953C20.3439 60.8283 20.0888 62.4428 20.3155 62.4618C23.4424 62.0867 26.3237 61.023 28.7185 58.9431L27.9769 57.8652L28.1895 57.1196C29.1342 56.5736 29.5687 57.9934 30.3953 57.2574C31.5384 56.2412 33.8056 50.8325 33.39 49.3557C31.392 48.9331 31.1889 47.4705 33.3616 47.3661C33.4089 44.2652 31.8927 41.0789 29.8852 38.7996C29.649 39.3885 28.1942 40.039 27.9486 39.1795C27.7502 38.5005 28.6335 38.1823 28.7091 37.8547C28.983 36.6295 21.5861 33.6902 20.1927 34.1128C20.5422 36.3019 18.2892 36.2924 18.6387 34.1128H18.6292ZM1.55873 34.6351V38.4055C1.55873 39.056 4.62897 41.2214 5.27608 41.0979L7.77006 37.6267C5.64451 36.715 3.28279 36.3209 1.55873 34.6351ZM52.2554 43.344V39.5736C49.3694 41.758 45.0994 42.9451 41.519 43.2111C39.4171 43.3678 36.7625 42.9261 34.7881 43.2111C34.4008 43.268 34.3772 43.0591 34.4055 43.6004C34.4669 44.7876 35.0999 46.5731 35.2227 47.8552C39.3321 47.9834 43.6682 47.8219 47.5886 46.4496C48.7034 46.0602 51.9625 44.5027 52.2554 43.3393V43.344ZM3.88739 46.5968L4.64314 42.8692L1.56818 40.8795C1.4312 43.3963 1.2706 45.4666 3.89211 46.6015L3.88739 46.5968ZM34.1505 53.8764C37.9481 54.0616 41.7505 54.0758 45.4867 53.1831C47.206 52.77 51.3627 51.3929 52.0617 49.6501C52.5152 48.5247 52.142 47.0099 52.2554 45.818C47.1919 49.2323 40.8719 49.6169 34.9251 49.4554L34.1505 53.8764ZM52.2554 52.0577L48.368 53.9951C43.5784 55.6096 38.548 55.7758 33.5506 55.4766L30.7968 59.2043C30.8204 59.6222 34.4528 60.0685 35.0621 60.1113C39.4171 60.4057 47.565 59.8263 51.0556 56.9534C52.8033 55.5146 52.1751 54.0901 52.2554 52.0529V52.0577Z" fill="#3F3F3F"/>
<path d="M20 59C26.0751 59 31 54.0751 31 48C31 41.9249 26.0751 37 20 37C13.9249 37 9 41.9249 9 48C9 54.0751 13.9249 59 20 59Z" fill="url(#paint0_linear_0_1066)"/>
<defs>
<linearGradient id="paint0_linear_0_1066" x1="20" y1="37" x2="20" y2="59" gradientUnits="userSpaceOnUse">
<stop stop-color="#C0C558"/>
<stop offset="1" stop-color="#96AD62"/>
</linearGradient>
</defs>
</svg>
