<svg width="56" height="61" viewBox="0 0 56 61" fill="none" xmlns="http://www.w3.org/2000/svg">
<g clip-path="url(#clip0_0_1093)">
<path d="M26.8936 0.270508L49.7627 11.8486L50.4697 12.5088L50.5225 38.0107H50.418C49.8824 37.6556 49.3511 37.2993 48.8145 36.9492V14.3066L48.6338 14.3965L27.1904 24.9961L27.1201 25.0303V54.751L27.3242 54.543L31.9229 52.2803C32.0426 52.8753 32.1978 53.4556 32.3916 54.0264C31.4913 54.388 30.1871 55.1614 28.9746 55.8232C28.3387 56.1704 27.7253 56.4873 27.1992 56.7051C26.9363 56.8139 26.6979 56.897 26.4912 56.9463C26.2914 56.994 26.1299 57.0069 26.0078 56.9893C22.0651 54.9616 17.9215 53.1589 13.793 51.3506C9.65599 49.5385 5.53283 47.721 1.63184 45.6641L1.19824 45.4551C1.04115 45.3811 0.878817 45.3027 0.727539 45.2158C0.422071 45.0404 0.195645 44.8489 0.125 44.6318L0.195312 12.3633L25.9902 0.128906L26.8936 0.270508ZM38.333 8.27246L17.9932 19.417L17.8652 19.3574V19.7725L18 19.6982C18.6731 20.0164 19.3518 20.3603 20.0361 20.71C20.7412 21.0702 21.4531 21.4359 22.1699 21.7832C23.6034 22.4778 25.063 23.1015 26.5459 23.46L26.5908 23.4707L26.6318 23.4492L46.9766 13.1924L47.0098 13.1748L47.0293 13.1426L47.3408 12.5967L47.4082 12.4785L47.2861 12.4209L38.4463 8.26953L38.3887 8.24219L38.333 8.27246ZM31.292 4.81738L31.2832 4.82129L31.2744 4.82617C28.2563 6.54504 25.161 8.12993 22.0586 9.7041C18.9571 11.2778 15.8474 12.8409 12.8047 14.5166V14.5176C12.0276 14.9464 10.9701 15.4838 10.3418 16.1465L10.2158 16.2793L10.3857 16.3477L15.8105 18.5322L15.8652 18.5547L15.916 18.5264L36.3262 7.46582L36.3525 7.45117L36.3701 7.42676C36.4046 7.37632 36.3983 7.32217 36.3877 7.28906C36.3775 7.25747 36.3596 7.23028 36.3438 7.20996C36.3111 7.1682 36.262 7.12298 36.2061 7.07715C36.0923 6.98393 35.9236 6.86816 35.7197 6.73926C35.31 6.48017 34.7439 6.16023 34.1543 5.85645C33.5648 5.5527 32.9481 5.263 32.4385 5.06348C32.1841 4.96389 31.9531 4.88573 31.7637 4.83984C31.6692 4.81695 31.5821 4.80137 31.5059 4.7959C31.4319 4.79062 31.356 4.7931 31.292 4.81738ZM26.3047 2.08594C26.1667 2.06391 26.0242 2.05892 25.9199 2.1123C22.4817 3.74944 19.011 5.32136 15.542 6.89844C12.1326 8.4484 8.72521 10.0045 5.35449 11.6318V11.6221L5.17383 11.7119C5.1067 11.7451 4.95457 11.8076 4.75391 11.8965C4.55793 11.9833 4.32401 12.0912 4.11035 12.209C3.89976 12.325 3.6968 12.4573 3.57031 12.5938C3.50729 12.6618 3.45184 12.7422 3.43457 12.833C3.41568 12.9325 3.44479 13.0278 3.51758 13.1064L3.53711 13.127L3.5625 13.1367L8.19336 15.0117L8.24707 15.0342L8.29785 15.0068L29.501 4.0127L29.5264 4L29.543 3.97754C29.6001 3.90265 29.5695 3.8204 29.5498 3.7832C29.5275 3.74126 29.4927 3.70016 29.4551 3.66309C29.3777 3.58678 29.2607 3.49722 29.1211 3.40137C28.84 3.20842 28.4456 2.97839 28.0312 2.76465C27.6169 2.55091 27.1775 2.35095 26.8066 2.22168C26.6218 2.15728 26.45 2.10917 26.3047 2.08594ZM14.7002 20.0859L14.627 20.0527L9.75586 17.8359L9.5791 17.7549V34.0615L9.65723 34.0928L14.5283 36.0674L14.7002 36.1367V20.0859ZM7.89062 17.0586L7.81738 17.0264L1.95703 14.3945L1.78027 14.3154V43.9277L1.85449 43.9609L25.249 54.5605L25.2979 54.4531H25.4258V25.0342L25.3525 25.001L16.5781 21.0527L16.4014 20.9736V37.8066C16.4014 37.8528 16.3766 37.91 16.3047 37.9746C16.2336 38.0385 16.1289 38.0976 16.0049 38.1465C15.7539 38.2454 15.4582 38.2872 15.2725 38.2559L15.1289 38.2168C15.0618 38.1955 14.9753 38.1659 14.8711 38.1279C14.6678 38.0539 14.4063 37.9529 14.1055 37.832C13.5037 37.5902 12.7472 37.2712 11.9873 36.9434C11.2273 36.6155 10.4643 36.2788 9.85156 35.999C9.23507 35.7175 8.77887 35.4973 8.62402 35.4033H8.62305C8.48442 35.3206 8.36834 35.2638 8.25195 35.1846C8.14975 35.1149 8.06425 35.0365 8 34.9326L7.89062 17.1396V17.0586Z" fill="#3F3F3F" stroke="white" stroke-width="0.25"/>
<path d="M44.3056 61.0003C50.7642 61.0003 55.9999 55.7037 55.9999 49.1701C55.9999 42.6364 50.7642 37.3398 44.3056 37.3398C37.8471 37.3398 32.6113 42.6364 32.6113 49.1701C32.6113 55.7037 37.8471 61.0003 44.3056 61.0003Z" fill="url(#paint0_linear_0_1093)"/>
<path d="M48.3778 44.8598C49.0998 44.6559 49.7047 45.1625 49.6787 45.9192L43.1551 52.6765C42.7648 52.8278 42.5372 52.6765 42.2185 52.4791C41.9453 52.3146 39.038 49.3143 38.9795 49.084C38.8104 48.4721 39.1941 47.8207 39.812 47.768C40.8201 47.6825 41.8933 49.913 42.9339 50.2288C43.5713 50.117 47.5258 45.0967 48.3843 44.8598H48.3778Z" fill="white"/>
</g>
<defs>
<linearGradient id="paint0_linear_0_1093" x1="44.3056" y1="37.3398" x2="44.3056" y2="61.0003" gradientUnits="userSpaceOnUse">
<stop stop-color="#9DB160"/>
<stop offset="1" stop-color="#BEC459"/>
</linearGradient>
<clipPath id="clip0_0_1093">
<rect width="56" height="61" fill="white"/>
</clipPath>
</defs>
</svg>
