<svg width="56" height="64" viewBox="0 0 56 64" fill="none" xmlns="http://www.w3.org/2000/svg">
<g clip-path="url(#clip0_0_1069)">
<path d="M45.7736 0.19043C46.005 0.152409 46.3069 0.217482 46.6447 0.373047C46.9785 0.526866 47.3282 0.760261 47.6466 1.03125C47.9651 1.30231 48.2469 1.60624 48.4474 1.89648C48.6519 2.19254 48.7559 2.45116 48.756 2.63672V6.8252L48.9454 6.80859C50.509 6.67396 52.0522 6.67666 53.2423 7.15723C53.8332 7.39585 54.3338 7.75148 54.7081 8.26465C55.0743 8.76664 55.3255 9.4303 55.4161 10.3057L55.4064 10.3223L55.4122 10.3838C55.592 12.351 55.6036 16.4196 55.4122 18.374C55.3996 18.4953 55.3955 18.619 55.3898 18.7275C55.3839 18.8394 55.3757 18.9397 55.3575 19.0332C55.3244 19.2037 55.2561 19.3472 55.0929 19.4707L26.7208 26.0908L26.5861 26.123L26.5851 26.2607L26.5558 37.5459L26.5548 37.7227L26.7316 37.7217C26.924 37.7201 27.1123 37.7077 27.2823 37.7002C27.4554 37.6926 27.6138 37.69 27.7638 37.7031C28.0199 37.7256 28.2502 37.7954 28.4698 37.9795L28.5636 38.0654C28.6025 38.1047 28.6722 38.2011 28.7687 38.3584C28.8622 38.5108 28.9731 38.7077 29.0958 38.9355C29.3412 39.3913 29.6291 39.9663 29.9064 40.5498C30.1837 41.1334 30.4502 41.7237 30.6515 42.21C30.7522 42.4532 30.8355 42.6696 30.8966 42.8447C30.9591 43.0239 30.993 43.1473 31.0011 43.2129L31.0021 43.2139C31.2113 44.8766 31.3028 48.0172 31.296 51.1748C31.2901 53.937 31.2092 56.6994 31.0665 58.4805L31.0011 59.1807C30.6665 62.2667 28.1378 63.8514 25.5948 63.8369C23.0561 63.8224 20.5439 62.2126 20.2491 58.9199C20.1325 57.61 20.0408 53.9663 20.0529 50.3926C20.0589 48.607 20.0907 46.8421 20.1583 45.3984C20.1921 44.6765 20.2347 44.036 20.2872 43.5146C20.3401 42.9903 20.4024 42.5969 20.4718 42.3613C20.4844 42.319 20.5234 42.2234 20.589 42.0781C20.6528 41.9368 20.7369 41.7572 20.8361 41.5527C21.0345 41.1437 21.2901 40.6365 21.549 40.1348C21.8078 39.633 22.0699 39.1377 22.2823 38.7529C22.3886 38.5606 22.482 38.3971 22.5558 38.2744C22.5928 38.213 22.6244 38.1625 22.6495 38.125C22.662 38.1064 22.6725 38.092 22.6808 38.0811C22.6849 38.0756 22.6881 38.0713 22.6906 38.0684C22.6915 38.0672 22.692 38.066 22.6925 38.0654C22.9401 37.8164 23.1993 37.7301 23.4923 37.7051C23.6426 37.6923 23.8012 37.6958 23.9747 37.7031C24.1452 37.7104 24.3326 37.7217 24.5255 37.7217H24.5948L24.6456 37.6738C24.6887 37.6333 24.713 37.5809 24.7277 37.542C24.7438 37.4992 24.7571 37.4499 24.7677 37.3975C24.7889 37.2918 24.8044 37.1552 24.8165 36.9961C24.8408 36.677 24.8511 36.246 24.8517 35.7402C24.8528 34.7274 24.8153 33.3989 24.7716 32.0322C24.7279 30.6641 24.6779 29.2567 24.6534 28.082C24.6289 26.9011 24.6311 25.9733 24.6876 25.5537L24.6866 25.5527C24.7435 25.1562 24.7516 24.9042 25.0031 24.7139L53.379 18.0957L53.5216 18.0625L53.5148 17.917C53.461 16.7972 53.5216 15.605 53.5714 14.4053C53.6211 13.2097 53.6594 12.0067 53.5558 10.8848C53.4893 10.1619 53.3079 9.65001 53.0177 9.29785C52.7243 8.94199 52.3369 8.77035 51.9054 8.69238C51.4792 8.61541 50.996 8.62806 50.4991 8.64941C49.996 8.67104 49.4729 8.70172 48.9406 8.6709L48.756 8.66016V12.8428C48.756 13.0285 48.6525 13.2879 48.4484 13.584C48.2483 13.8742 47.9666 14.1773 47.6486 14.4482C47.3304 14.7193 46.9808 14.9536 46.6466 15.1074C46.3087 15.2629 46.0057 15.3273 45.7726 15.2891L45.7589 15.2871H45.7443L3.58997 15.2988H3.58215C2.9106 15.3295 2.19784 15.0735 1.61047 14.6377C1.09642 14.2562 0.691684 13.7469 0.495239 13.1963L0.42395 12.958C0.344259 12.6281 0.281598 11.9199 0.23938 11.002C0.197469 10.0906 0.175609 8.98919 0.172974 7.88379C0.170343 6.77834 0.186952 5.67004 0.220825 4.74609C0.254847 3.81809 0.306092 3.08749 0.371216 2.72852C0.474869 2.15706 0.809021 1.58865 1.26868 1.13477C1.72516 0.684112 2.29348 0.357756 2.85657 0.251953L45.7452 0.193359H45.7589L45.7736 0.19043ZM23.8575 39.7402C23.6778 40.3776 23.3044 41.0013 22.9376 41.6621C22.5773 42.3112 22.2249 42.9948 22.1359 43.7158C21.9748 45.0375 21.8817 48.2848 21.8839 51.498C21.8862 54.7074 21.9838 57.9178 22.2101 59.1592C22.8935 62.9071 28.468 62.97 29.1173 58.8613L29.1447 58.6621C29.3235 57.1023 29.4194 54.1345 29.424 51.1787C29.4285 48.2235 29.3417 45.262 29.1505 43.7158C29.0615 42.9948 28.7091 42.3112 28.3488 41.6621C27.9819 41.0013 27.6085 40.3776 27.4288 39.7402L27.2667 39.7861V39.6133H23.8937L23.8575 39.7402ZM23.3243 1.98633C20.9425 1.99607 18.3594 2.024 17.2775 2.04199H15.2267C15.1622 2.0366 15.0943 2.03052 15.0206 2.03027H15.0216C14.6289 2.01825 14.2297 2.01271 13.837 2.0127H13.838C12.4876 1.9947 11.137 1.99414 9.78821 1.99414C8.43934 1.99414 7.08882 1.9947 5.7384 2.0127L4.90247 2.00195C4.61552 2.00044 4.32013 2.0092 4.03723 2.05664H4.03528C3.94081 2.07347 3.83508 2.08519 3.71497 2.09961C3.59832 2.11362 3.4712 2.13025 3.34778 2.1582C3.12068 2.20966 2.87409 2.30661 2.71887 2.5293L2.27747 2.75L2.18079 2.79785V12.5674C2.18079 12.609 2.19592 12.6401 2.19934 12.6475C2.2052 12.66 2.21136 12.6706 2.21594 12.6777C2.22537 12.6923 2.23688 12.7068 2.24719 12.7197C2.26846 12.7463 2.29673 12.779 2.32825 12.8135C2.39185 12.883 2.47602 12.9695 2.56067 13.0537C2.64527 13.1379 2.73203 13.2219 2.80188 13.2852C2.83644 13.3165 2.86898 13.3451 2.89563 13.3662C2.9086 13.3765 2.92393 13.3871 2.9386 13.3965C2.94575 13.4011 2.95623 13.4082 2.96887 13.4141C2.97667 13.4177 3.00736 13.4316 3.04797 13.4316H4.07141C4.10489 13.4566 4.13967 13.474 4.16711 13.4854C4.23035 13.5116 4.30783 13.5305 4.39075 13.5459C4.55767 13.577 4.77858 13.5973 5.03137 13.6094C5.5394 13.6336 6.20148 13.6278 6.87024 13.6094C7.53981 13.591 8.22063 13.5595 8.76868 13.5332C9.32117 13.5067 9.73037 13.4854 9.86633 13.4854C11.0258 13.4854 12.1804 13.4855 13.3351 13.4736C13.7905 13.5247 14.7218 13.5316 15.8488 13.5176C16.4205 13.5105 17.0462 13.4977 17.6915 13.4824L19.6525 13.4316H21.6476C21.6547 13.4331 21.661 13.4348 21.6661 13.4355C21.6843 13.4382 21.7065 13.4397 21.7296 13.4414C21.7768 13.4449 21.8424 13.4484 21.922 13.4512C22.082 13.4568 22.3071 13.4609 22.5743 13.4648C23.109 13.4727 23.8175 13.4784 24.5255 13.4814C25.9421 13.4874 27.3599 13.4854 27.3868 13.4854H30.2462L31.1261 13.5068C32.1941 13.5203 33.7716 13.5122 35.3644 13.4971L40.6456 13.4316H41.6642L42.6974 13.4814C43.7396 13.5228 44.7961 13.519 45.7521 13.3076C46.0127 13.25 46.2032 13.145 46.298 12.9717L46.756 12.7422H46.8956V2.91211C46.8955 2.87072 46.8805 2.83934 46.8771 2.83203C46.8712 2.8195 46.865 2.80883 46.8605 2.80176C46.851 2.78713 46.8396 2.77267 46.8292 2.75977C46.808 2.73329 46.7796 2.70132 46.7482 2.66699C46.6845 2.59745 46.6005 2.51008 46.5157 2.42578C46.431 2.34147 46.3435 2.25765 46.2736 2.19434C46.239 2.16308 46.2064 2.13536 46.1798 2.11426C46.1669 2.10399 46.1525 2.09237 46.1378 2.08301C46.1307 2.07847 46.1201 2.07221 46.1075 2.06641C46.1002 2.063 46.0687 2.04883 46.0275 2.04883H40.8976C39.1089 2.03085 37.0553 2.01856 35.5431 2.01855H35.5441C34.012 2.00055 31.5942 2.02402 29.5294 2.04199H28.1642C28.0632 2.02737 27.8736 2.01533 27.631 2.00781C27.3486 1.99906 26.9743 1.99333 26.5353 1.98926C25.6567 1.9811 24.5153 1.98146 23.3243 1.98633Z" fill="#3F3F3F" stroke="white" stroke-width="0.35"/>
<path d="M25.0509 55.415C25.8229 55.2472 26.4164 55.3882 26.8409 55.6836C27.2686 55.9813 27.5425 56.448 27.6486 56.959C27.8627 57.9906 27.3904 59.1265 26.2355 59.376H26.2345C25.4624 59.5438 24.869 59.402 24.4445 59.1064C24.0169 58.8088 23.743 58.3429 23.6368 57.832C23.4227 56.8004 23.8951 55.6646 25.0499 55.415H25.0509Z" fill="#3F3F3F" stroke="white" stroke-width="0.35"/>
<path d="M4.08997 3.29004H11.7872L17.3283 11.8481H4.08997V3.29004Z" fill="url(#paint0_linear_0_1069)"/>
<path d="M13.4786 3.29004L19.2124 11.8481H34.7274L26.7531 3.29004H13.4786Z" fill="url(#paint1_linear_0_1069)"/>
<path d="M29.3497 3.29022L37.1614 11.8483H45.0575V3.29022H29.3497Z" fill="url(#paint2_linear_0_1069)"/>
</g>
<defs>
<linearGradient id="paint0_linear_0_1069" x1="10.7091" y1="3.29004" x2="10.7091" y2="11.8481" gradientUnits="userSpaceOnUse">
<stop stop-color="#99AF61"/>
<stop offset="1" stop-color="#BEC459"/>
</linearGradient>
<linearGradient id="paint1_linear_0_1069" x1="24.103" y1="3.29004" x2="24.103" y2="11.8481" gradientUnits="userSpaceOnUse">
<stop stop-color="#99AF61"/>
<stop offset="1" stop-color="#BEC459"/>
</linearGradient>
<linearGradient id="paint2_linear_0_1069" x1="37.2036" y1="3.29022" x2="37.2036" y2="11.8483" gradientUnits="userSpaceOnUse">
<stop stop-color="#99AF61"/>
<stop offset="1" stop-color="#BEC459"/>
</linearGradient>
<clipPath id="clip0_0_1069">
<rect width="55.7419" height="64" fill="white"/>
</clipPath>
</defs>
</svg>
