<svg width="54" height="61" viewBox="0 0 54 61" fill="none" xmlns="http://www.w3.org/2000/svg">
<g clip-path="url(#clip0_0_1076)">
<path d="M53.9941 19.0941V17.503H43.4838C43.3896 17.503 43.2954 17.503 43.207 17.4971H16.4632C16.4632 17.4971 16.4455 17.4971 16.4396 17.503H0.00585938V56.8515C0.12951 59.0791 1.87828 60.8294 4.10399 60.9649C19.8017 60.7587 35.5937 61.3362 51.2384 60.6703C52.8106 60.0633 53.9116 58.5546 53.9941 56.8515V19.0941ZM1.65453 19.489L2.00193 19.1413H52.0098L52.3572 19.489V42.2778C52.3572 45.3422 44.5495 43.2325 42.4239 44.5466C39.2502 46.509 41.2404 51.2118 40.575 54.2055C40.4396 54.8007 39.8861 55.3606 39.2855 55.4961L3.13245 55.3664C2.57308 55.1661 1.66631 53.793 1.66631 53.3156V19.489H1.65453ZM50.944 45.684L42.3768 54.3764C41.9941 54.1996 42.4946 53.8283 42.4946 53.793V46.9805C42.4946 46.5621 43.8606 45.6899 44.2551 45.6899H50.944V45.684ZM52.3513 56.8397C52.2512 57.4585 51.4975 58.6489 50.8851 58.8906L3.28554 58.9613C2.30223 58.5546 1.97249 57.6471 1.65453 56.7219L4.10988 57.4349L40.9107 57.3701L42.842 56.4861L52.3513 47.0925C52.0039 50.0332 52.8165 54.0405 52.3513 56.8397Z" fill="#3F3F3F"/>
<path d="M48.2937 29.879C49.1769 28.995 49.436 23.2492 47.434 22.766C46.0974 22.4419 41.6872 22.2297 41.1867 23.8268C40.9041 24.7343 40.9041 29.1895 41.54 29.8378C42.3761 30.6923 47.4753 30.6982 48.2937 29.879ZM42.9591 24.5398H46.9512V28.5354H42.9591V24.5398Z" fill="#3F3F3F"/>
<path d="M12.46 29.8371C13.1077 29.1712 13.0252 25.7001 12.931 24.6452C12.8368 23.6257 12.513 22.8478 11.3825 22.671C10.3461 22.5119 6.41288 22.4883 5.71219 23.1955C4.89963 24.0088 4.91729 29.0828 5.71219 29.8783C6.50709 30.6739 11.6298 30.6916 12.4659 29.8371H12.46ZM7.04879 24.5391H11.0409V28.5347H7.04879V24.5391Z" fill="#3F3F3F"/>
<path d="M24.3125 29.9553C25.1545 29.2187 25.1486 24.0504 24.4302 23.2371C23.6942 22.3944 18.5303 22.4003 17.7178 23.1193C16.8522 23.8795 16.8758 29.0713 17.6766 29.8787C18.4656 30.6684 23.5058 30.6684 24.3125 29.9553ZM19.019 24.5395H23.0112V28.5351H19.019V24.5395Z" fill="#3F3F3F"/>
<path d="M36.3239 29.8786C37.1246 29.0771 37.1482 23.8793 36.2826 23.1191C35.4701 22.4002 30.3062 22.3943 29.5702 23.237C28.8754 24.0267 28.8695 29.0653 29.5878 29.8196C30.4357 30.7036 35.5054 30.6918 36.318 29.8786H36.3239ZM30.9892 24.5394H34.9814V28.5349H30.9892V24.5394Z" fill="#3F3F3F"/>
<path d="M12.388 51.7305C13.1829 50.9938 13.1712 45.8962 12.4528 45.0889C11.7462 44.2933 7.84241 44.3463 6.71189 44.5231C4.70993 44.8355 4.93957 48.9312 5.18687 50.487C5.5696 52.9209 11.3812 52.6675 12.388 51.7305ZM7.04752 46.3913H11.0397V50.3868H7.04752V46.3913Z" fill="#3F3F3F"/>
<path d="M18.4835 44.558C17.7769 44.7171 17.2646 45.3476 17.1586 46.0489C16.9997 47.0508 17.0055 50.5395 17.506 51.3115C18.4422 52.7435 24.0006 52.8025 24.7131 51.0227C25.0546 50.1682 25.0605 45.9546 24.5365 45.218C23.8417 44.2515 19.614 44.3046 18.4894 44.558H18.4835ZM23.0114 50.3804H19.0193V46.3848H23.0114V50.3804Z" fill="#3F3F3F"/>
<path d="M42.03 41.3351C42.6188 41.6003 47.4824 41.559 48.0241 41.2349C49.1016 40.5984 49.0074 36.6677 48.819 35.4773C48.7189 34.8526 48.189 34.0688 47.5354 33.9451C46.923 33.8272 42.7071 33.839 42.189 33.9863C40.7287 34.4106 40.9289 38.4415 41.0761 39.6968C41.1409 40.2684 41.4942 41.0934 42.0241 41.3351H42.03ZM42.9603 35.5833H46.9525V39.8146H42.9603V35.5833Z" fill="#3F3F3F"/>
<path d="M7.15938 41.229C8.26046 41.3292 11.599 41.4117 12.3409 40.7516C13.1299 40.0444 13.0828 36.3494 12.9121 35.2415C12.7884 34.4518 12.2291 33.7977 11.4106 33.6916C10.6805 33.5973 6.85909 33.5856 6.28205 33.7506C4.82179 34.1808 5.02788 38.1999 5.16919 39.461C5.3164 40.7398 5.97587 41.1229 7.15938 41.229ZM7.04751 35.3476H11.0397V39.5789H7.04751V35.3476Z" fill="#3F3F3F"/>
<path d="M19.1242 41.229C20.2253 41.3292 23.5639 41.4117 24.3058 40.7516C25.0948 40.0444 25.0477 36.3494 24.8769 35.2415C24.7533 34.4518 24.1939 33.7977 23.3755 33.6916C22.6453 33.5973 18.8239 33.5856 18.2469 33.7506C16.7866 34.1808 16.9927 38.1999 17.134 39.461C17.2812 40.7398 17.9407 41.1229 19.1242 41.229ZM19.0182 35.3476H23.0104V39.5789H19.0182V35.3476Z" fill="#3F3F3F"/>
<path d="M31.0952 41.2288C32.1963 41.329 35.5348 41.4115 36.2767 40.7514C37.0657 40.0443 37.0186 36.3493 36.8479 35.2413C36.7242 34.4517 36.1648 33.7975 35.3464 33.6914C34.6163 33.5972 30.7949 33.5854 30.2178 33.7504C28.7576 34.1806 28.9637 38.1997 29.105 39.4608C29.2522 40.7397 29.9117 41.1227 31.0952 41.2288ZM30.9892 35.3474H34.9813V39.5787H30.9892V35.3474Z" fill="#3F3F3F"/>
<path d="M30.9892 46.3912H34.9813V50.3867H31.1069C30.9715 50.3867 29.9116 48.3418 29.1579 50.316C28.9342 52.909 34.9048 52.6084 36.0412 51.8011C37.154 51.0055 37.0127 47.5816 36.8655 46.2733C36.7831 45.5484 36.4357 44.853 35.6997 44.6232C34.7458 44.3227 30.4062 44.3521 29.6997 44.9827C27.5446 46.898 30.9421 50.646 30.995 46.3971L30.9892 46.3912Z" fill="#3F3F3F"/>
<path d="M53.7704 5.03906H0V15.0692H53.7704V5.03906Z" fill="url(#paint0_linear_0_1076)"/>
<path d="M41.1291 2.56328C41.1291 2.56328 41.1291 2.57507 41.1291 2.59864C41.1056 2.79901 41.0938 3.01116 41.0997 3.22921C41.0349 4.83214 40.9054 8.8277 41.2057 9.45827C41.453 10.3599 43.9319 11.9629 44.5972 10.6074C45.0212 9.74114 44.3794 9.5113 43.7788 9.32272C43.7788 9.32272 43.1311 9.01039 42.8661 6.7651L42.819 5.91059C42.7425 5.66897 42.8013 5.40378 42.7601 5.13269C42.7542 4.84982 42.7542 4.54338 42.7601 4.21926C42.7778 4.13086 42.7542 4.00121 42.7837 3.9246C42.766 2.20969 43.0486 1.50251 44.7032 2.03879C44.9858 2.31577 45.1036 2.65757 45.1507 3.02295L45.1801 3.72423C45.1801 3.72423 45.2626 4.0955 46.0516 4.13086C46.8406 4.16622 46.8524 3.71834 46.8524 3.71834C47.3587 -0.813495 41.6296 -1.22012 41.1291 2.55739V2.56328Z" fill="#3F3F3F"/>
<path d="M5.22274 2.56352C5.22274 2.56352 5.22274 2.57531 5.22274 2.59888C5.19919 2.79925 5.18741 3.0114 5.1933 3.22945C5.12853 4.83239 4.99899 8.82794 5.29929 9.45851C5.54659 10.3602 8.02549 11.9631 8.69085 10.6077C9.11479 9.74138 8.47299 9.51155 7.8724 9.32297C7.8724 9.32297 7.2247 9.01063 6.95974 6.76534L6.91263 5.91083C6.83609 5.66921 6.89497 5.40402 6.85375 5.13294C6.84786 4.85007 6.84786 4.54362 6.85375 4.2195C6.87142 4.1311 6.84786 4.00145 6.8773 3.92484C6.85964 2.20994 7.14227 1.50276 8.79683 2.03903C9.07946 2.31601 9.19722 2.65781 9.24433 3.02319L9.27377 3.72448C9.27377 3.72448 9.3562 4.09574 10.1452 4.1311C10.9342 4.16646 10.946 3.71858 10.946 3.71858C11.4524 -0.813251 5.72323 -1.21988 5.22274 2.55763V2.56352Z" fill="#3F3F3F"/>
</g>
<defs>
<linearGradient id="paint0_linear_0_1076" x1="0" y1="10.0541" x2="53.7704" y2="10.0541" gradientUnits="userSpaceOnUse">
<stop stop-color="#9CB060"/>
<stop offset="1" stop-color="#BEC459"/>
</linearGradient>
<clipPath id="clip0_0_1076">
<rect width="54" height="61" fill="white"/>
</clipPath>
</defs>
</svg>
